General
Complete name                    : Game.of.Death.2010.DVDSCr.aaaevilacharya.m4v
Format                           : MPEG-4
Format profile                   : Base Media / Version 2
Codec ID                         : mp42
File size                        : 250 MiB
Duration                         : 1h 22mn
Overall bit rate                 : 424 Kbps
Encoded date                     : UTC 2010-12-12 16:53:45
Tagged date                      : UTC 2010-12-12 18:07:05


Video
ID                               : 1
Format                           : AVC
Format/Info                      : Advanced Video Codec
Format profile                   : Baseline@L3.0
Format settings, CABAC           : No
Format settings, ReFrames        : 1 frame
Format settings, GOP             : M=1, N=9
Codec ID                         : avc1
Codec ID/Info                    : Advanced Video Coding
Duration                         : 1h 22mn
Bit rate mode                    : Variable
Bit rate                         : 309 Kbps
Width                            : 480 pixels
Height                           : 208 pixels
Display aspect ratio             : 2.35:1
Frame rate mode                  : Variable
Frame rate                       : 24.984 fps
Original frame rate              : 25.000 fps
Minimum frame rate               : 12.500 fps
Maximum frame rate               : 25.000 fps
Color space                      : YUV
Chroma subsampling               : 4:2:0
Bit depth                        : 8 bits
Scan type                        : Progressive
Bits/(Pixel*Frame)               : 0.124
Stream size                      : 184 MiB (73%)
Writing library                  : x264 core 79


Audio
ID                               : 2
Format                           : AAC
Format/Info                      : Advanced Audio Codec
Format version                   : Version 4
Format profile                   : LC
Format settings, SBR             : No
Codec ID                         : 40
Duration                         : 1h 22mn
Bit rate mode                    : Variable
Bit rate                         : 110 Kbps
Maximum bit rate                 : 174 Kbps
Channel(s)                       : 2 channels
Channel positions                : Front: L R
Sampling rate                    : 44.1 KHz
Stream size                      : 65.0 MiB (26%)
Encoded date                     : UTC 2010-12-12 16:53:45
Tagged date                      : UTC 2010-12-12 18:07:05

Text
ID                               : 3
Format                           : Apple text
Codec ID                         : text
Duration                         : 1h 22mn
Bit rate                         : 0
Stream size                      : 14.0 Bytes (0%)
Encoded date                     : UTC 2010-12-12 16:53:45
Tagged date                      : UTC 2010-12-12 18:07:05

SCREENSHOTS
 
http://img98.imageshack.us/img98/1383/gameofdeath2010dvdscraa.jpg 
http://img338.imageshack.us/img338/1383/gameofdeath2010dvdscraa.jpg 
http://img97.imageshack.us/img97/1383/gameofdeath2010dvdscraa.jpg 
http://img30.imageshack.us/img30/1383/gameofdeath2010dvdscraa.jpg 
http://img593.imageshack.us/img593/1383/gameofdeath2010dvdscraa.jpg 
http://img804.imageshack.us/img804/1383/gameofdeath2010dvdscraa.jpg 
http://img63.imageshack.us/img63/1383/gameofdeath2010dvdscraa.jpg 
http://img403.imageshack.us/img403/3830/gameofdeathm2.jpg
